<?xml version="1.0" encoding="UTF-8" standalone="no"?>
<!DOCTYPE svg PUBLIC "-//W3C//DTD SVG 1.1//EN" "http://www.w3.org/Graphics/SVG/1.1/DTD/svg11.dtd">
<svg xmlns="http://www.w3.org/2000/svg" version="1.1" viewBox="0 0 1152 1152">
<g stroke-width="2.00" fill="none" stroke-linecap="butt">
<path stroke="#d3d300" stroke-opacity="0.702" vector-effect="non-scaling-stroke" d="
  M 1057.33 754.51
  Q 1055.07 752.19 1046.49 741.76
  Q 1041.84 736.10 1032.77 727.95
  C 912.98 620.37 724.76 675.64 679.96 829.50"
/>
<path stroke="#d3d300" stroke-opacity="0.702" vector-effect="non-scaling-stroke" d="
  M 679.96 944.50
  C 689.79 979.39 707.46 1011.23 732.71 1037.35"
/>
<path stroke="#cbc900" stroke-opacity="0.753" vector-effect="non-scaling-stroke" d="
  M 679.96 944.50
  Q 669.28 905.87 673.00 867.75
  Q 674.67 850.63 679.96 829.50"
/>
</g>
<path fill="#656401" fill-opacity="0.400" d="
  M 195.95 299.20
  C 205.17 281.40 218.22 274.25 235.02 265.19
  Q 375.97 189.19 516.94 113.25
  Q 528.68 106.93 534.88 104.42
  Q 582.62 85.15 628.57 109.94
  Q 778.31 190.69 928.02 271.52
  Q 945.75 281.09 955.53 298.72
  C 964.15 314.29 966.15 335.25 961.03 352.79
  Q 954.29 375.88 935.83 389.53
  Q 931.55 392.70 918.64 399.67
  Q 772.33 478.61 625.99 557.49
  C 594.74 574.34 556.88 574.31 525.01 557.18
  Q 380.27 479.38 235.61 401.44
  Q 221.50 393.83 218.20 391.61
  Q 195.14 376.06 189.13 348.59
  C 185.34 331.30 187.80 314.94 195.95 299.20
  Z"
/>
<path fill="#656401" fill-opacity="0.400" d="
  M 94.58 536.50
  C 94.52 497.85 122.94 467.79 161.24 466.18
  C 175.08 465.60 186.37 469.30 198.75 475.50
  Q 332.74 542.61 466.68 609.84
  Q 466.80 609.90 473.00 612.91
  Q 516.42 634.02 534.07 678.98
  C 541.86 698.81 541.34 718.14 541.32 739.81
  Q 541.26 849.32 541.32 958.84
  C 541.33 967.46 542.49 985.12 540.89 995.20
  Q 535.75 1027.44 509.86 1044.24
  C 492.90 1055.24 472.90 1058.38 453.43 1052.66
  Q 447.34 1050.87 435.08 1044.77
  Q 297.66 976.31 160.29 907.74
  C 127.84 891.54 104.90 860.20 97.37 825.52
  C 94.25 811.16 94.61 796.31 94.66 780.44
  Q 94.84 725.24 94.58 536.50
  Z"
/>
<path fill="#656401" fill-opacity="0.400" d="
  M 1057.33 754.51
  Q 1055.07 752.19 1046.49 741.76
  Q 1041.84 736.10 1032.77 727.95
  C 912.98 620.37 724.76 675.64 679.96 829.50
  L 679.56 829.58
  A 0.83 0.53 -88.1 0 0 679.09 830.26
  Q 678.94 831.48 678.26 832.51
  A 0.23 0.20 -66.5 0 0 678.37 832.85
  Q 678.47 832.87 678.56 832.80
  Q 678.67 832.71 678.61 832.83
  Q 676.57 837.46 676.03 842.52
  A 0.67 0.59 -22.8 0 1 675.84 842.91
  C 675.52 843.22 675.58 842.96 675.47 843.49
  C 672.94 856.54 671.34 869.37 671.34 882.91
  C 671.34 890.57 670.93 898.10 671.82 905.84
  Q 672.18 909.00 672.62 914.07
  Q 673.55 924.75 679.17 943.76
  Q 679.37 944.41 679.96 944.50
  C 689.79 979.39 707.46 1011.23 732.71 1037.35
  Q 722.61 1042.09 712.78 1047.34
  C 670.99 1069.63 621.00 1046.06 611.65 1000.01
  Q 610.27 993.21 610.25 980.38
  Q 610.09 851.07 610.22 721.75
  C 610.26 680.94 630.70 642.89 664.87 620.81
  Q 670.24 617.34 682.42 611.25
  Q 819.56 542.66 956.79 474.26
  Q 967.94 468.70 980.07 467.03
  C 1016.79 462.00 1051.21 488.81 1056.63 525.09
  Q 1057.47 530.66 1057.49 545.05
  Q 1057.63 649.77 1057.33 754.51
  Z"
/>
<path fill="#ffff00" d="
  M 1057.33 754.51
  Q 1059.44 758.26 1062.20 761.87
  C 1090.45 798.82 1104.31 845.36 1103.93 891.58
  C 1103.60 930.86 1090.60 970.79 1069.82 1003.81
  C 1006.85 1103.88 873.04 1134.17 773.66 1070.39
  C 759.33 1061.19 744.65 1049.58 732.71 1037.35
  C 707.46 1011.23 689.79 979.39 679.96 944.50
  Q 669.28 905.87 673.00 867.75
  Q 674.67 850.63 679.96 829.50
  C 724.76 675.64 912.98 620.37 1032.77 727.95
  Q 1041.84 736.10 1046.49 741.76
  Q 1055.07 752.19 1057.33 754.51
  Z
  M 851.94 923.56
  Q 852.05 945.65 852.00 967.75
  Q 851.98 977.20 855.07 983.92
  C 871.51 1019.70 923.99 1008.04 924.00 968.25
  Q 924.00 945.78 924.00 923.45
  A 0.48 0.48 0.0 0 1 924.48 922.97
  Q 942.15 923.06 959.81 922.97
  Q 974.14 922.90 979.64 921.25
  C 998.87 915.49 1009.48 892.89 1002.25 874.56
  C 997.93 863.62 989.15 855.61 977.87 852.49
  Q 972.48 850.99 958.00 851.00
  Q 941.19 851.01 924.46 850.99
  A 0.47 0.47 0.0 0 1 923.99 850.52
  Q 924.03 833.65 923.99 816.79
  Q 923.96 803.95 922.41 798.49
  C 916.05 776.14 889.82 765.36 869.79 777.54
  Q 852.22 788.22 852.10 809.76
  Q 851.98 830.22 852.00 850.52
  A 0.49 0.49 0.0 0 1 851.51 851.01
  Q 833.03 850.97 814.56 851.02
  Q 803.84 851.05 799.15 852.22
  C 778.80 857.28 766.12 878.74 773.53 898.77
  C 779.15 913.99 792.35 922.89 808.76 922.92
  Q 830.08 922.96 851.43 923.06
  A 0.51 0.50 0.0 0 1 851.94 923.56
  Z"
/>
<path fill="#645e01" fill-opacity="0.502" d="
  M 679.96 829.50
  Q 674.67 850.63 673.00 867.75
  Q 669.28 905.87 679.96 944.50
  Q 679.37 944.41 679.17 943.76
  Q 673.55 924.75 672.62 914.07
  Q 672.18 909.00 671.82 905.84
  C 670.93 898.10 671.34 890.57 671.34 882.91
  C 671.34 869.37 672.94 856.54 675.47 843.49
  C 675.58 842.96 675.52 843.22 675.84 842.91
  A 0.67 0.59 -22.8 0 0 676.03 842.52
  Q 676.57 837.46 678.61 832.83
  Q 678.67 832.71 678.56 832.80
  Q 678.47 832.87 678.37 832.85
  A 0.23 0.20 -66.5 0 1 678.26 832.51
  Q 678.94 831.48 679.09 830.26
  A 0.83 0.53 -88.1 0 1 679.56 829.58
  L 679.96 829.50
  Z"
/>
</svg>
