<!DOCTYPE svg PUBLIC "-//W3C//DTD SVG 1.1//EN" "http://www.w3.org/Graphics/SVG/1.1/DTD/svg11.dtd"><svg xmlns="http://www.w3.org/2000/svg"  width="800px"  height="800px"  viewBox="0 0 24 24"  fill="none">  <g    id="SVGRepo_bgCarrier"    stroke-width="0" />  <g    id="SVGRepo_tracerCarrier"    stroke-linecap="round"    stroke-linejoin="round" />  <g id="SVGRepo_iconCarrier">    <path      d="M8.42229 20.6181C10.1779 21.5395 11.0557 22.0001 12 22.0001V12.0001L2.63802 7.07275C2.62423 7.09491 2.6107 7.11727 2.5974 7.13986C2 8.15436 2 9.41678 2 11.9416V12.0586C2 14.5834 2 15.8459 2.5974 16.8604C3.19479 17.8749 4.27063 18.4395 6.42229 19.5686L8.42229 20.6181Z"      fill="#1C274C" />    <path      opacity="0.7"      d="M17.5774 4.43152L15.5774 3.38197C13.8218 2.46066 12.944 2 11.9997 2C11.0554 2 10.1776 2.46066 8.42197 3.38197L6.42197 4.43152C4.31821 5.53552 3.24291 6.09982 2.6377 7.07264L11.9997 12L21.3617 7.07264C20.7564 6.09982 19.6811 5.53552 17.5774 4.43152Z"      fill="#1C274C" />    <path      opacity="0.5"      d="M21.4026 7.13986C21.3893 7.11727 21.3758 7.09491 21.362 7.07275L12 12.0001V22.0001C12.9443 22.0001 13.8221 21.5395 15.5777 20.6181L17.5777 19.5686C19.7294 18.4395 20.8052 17.8749 21.4026 16.8604C22 15.8459 22 14.5834 22 12.0586V11.9416C22 9.41678 22 8.15436 21.4026 7.13986Z"      fill="#1C274C" />    <path      d="M6.32334 4.48382C6.35617 4.46658 6.38926 4.44922 6.42261 4.43172L7.91614 3.64795L17.0169 8.65338L21.0406 6.64152C21.1783 6.79745 21.298 6.96175 21.4029 7.13994C21.5525 7.39396 21.6646 7.66352 21.7487 7.96455L17.7503 9.96373V13.0002C17.7503 13.4144 17.4145 13.7502 17.0003 13.7502C16.5861 13.7502 16.2503 13.4144 16.2503 13.0002V10.7137L12.7503 12.4637V21.9042C12.4934 21.9682 12.2492 22.0002 12.0003 22.0002C11.7515 22.0002 11.5072 21.9682 11.2503 21.9042V12.4637L2.25195 7.96455C2.33601 7.66352 2.44813 7.39396 2.59771 7.13994C2.70264 6.96175 2.82232 6.79745 2.96001 6.64152L12.0003 11.1617L15.3865 9.46857L6.32334 4.48382Z"      fill="#1C274C" />  </g></svg>